<?xml version="1.0" encoding="UTF-8" standalone="no"?>
<!-- Created with Inkscape (http://www.inkscape.org/) -->

<svg
   xmlns:dc="http://purl.org/dc/elements/1.1/"
   xmlns:cc="http://creativecommons.org/ns#"
   xmlns:rdf="http://www.w3.org/1999/02/22-rdf-syntax-ns#"
   xmlns:svg="http://www.w3.org/2000/svg"
   xmlns="http://www.w3.org/2000/svg"
   xmlns:sodipodi="http://sodipodi.sourceforge.net/DTD/sodipodi-0.dtd"
   xmlns:inkscape="http://www.inkscape.org/namespaces/inkscape"
   width="1024"
   height="1024"
   viewBox="0 0 1024 1024"
   id="svg3372"
   version="1.1"
   inkscape:version="0.91 r13725"
   sodipodi:docname="icon.svg"
   inkscape:export-filename="/Users/emironuk/OneDrive/Projeler/ReactNative/textEncodingConverter/resources/icon.png"
   inkscape:export-xdpi="300"
   inkscape:export-ydpi="300">
  <defs
     id="defs3374" />
  <sodipodi:namedview
     id="base"
     pagecolor="#ffffff"
     bordercolor="#666666"
     borderopacity="1.0"
     inkscape:pageopacity="0.0"
     inkscape:pageshadow="2"
     inkscape:zoom="0.32"
     inkscape:cx="53.10585"
     inkscape:cy="498.12315"
     inkscape:document-units="px"
     inkscape:current-layer="g4202"
     showgrid="false"
     units="px"
     inkscape:window-width="1280"
     inkscape:window-height="687"
     inkscape:window-x="10"
     inkscape:window-y="0"
     inkscape:window-maximized="0"
     showguides="false" />
  <metadata
     id="metadata3377">
    <rdf:RDF>
      <cc:Work
         rdf:about="">
        <dc:format>image/svg+xml</dc:format>
        <dc:type
           rdf:resource="http://purl.org/dc/dcmitype/StillImage" />
        <dc:title />
      </cc:Work>
    </rdf:RDF>
  </metadata>
  <g
     inkscape:label="Layer 1"
     inkscape:groupmode="layer"
     id="layer1"
     transform="translate(0,-28.36219)">
    <rect
       style="opacity:1;fill:#e5f5ff;fill-opacity:1;stroke:none;stroke-width:20.60000038;stroke-miterlimit:4;stroke-dasharray:none"
       id="rect4236"
       width="1024"
       height="1024"
       x="0"
       y="28.362122"
       ry="89.043488" />
    <g
       id="g4202"
       style="fill:#00c6ff;stroke:none"
       transform="matrix(2.79196,0,0,2.79196,-201.83919,-1654.6749)">
      <path
         style="color:#000000;font-style:normal;font-variant:normal;font-weight:normal;font-stretch:normal;font-size:medium;line-height:normal;font-family:sans-serif;text-indent:0;text-align:start;text-decoration:none;text-decoration-line:none;text-decoration-style:solid;text-decoration-color:#000000;letter-spacing:normal;word-spacing:normal;text-transform:none;direction:ltr;block-progression:tb;writing-mode:lr-tb;baseline-shift:baseline;text-anchor:start;white-space:normal;clip-rule:nonzero;display:inline;overflow:visible;visibility:visible;opacity:1;isolation:auto;mix-blend-mode:normal;color-interpolation:sRGB;color-interpolation-filters:linearRGB;solid-color:#000000;solid-opacity:1;fill:#00c6ff;fill-opacity:1;fill-rule:evenodd;stroke:none;stroke-width:22.18031311;stroke-linecap:butt;stroke-linejoin:miter;stroke-miterlimit:4;stroke-dasharray:none;stroke-dashoffset:0;stroke-opacity:1;color-rendering:auto;image-rendering:auto;shape-rendering:auto;text-rendering:auto;enable-background:accumulate"
         d="m 224.23341,684.93694 0,172.89805 22.18164,0 0,-172.89805 z"
         id="path3400"
         inkscape:connector-curvature="0"
         sodipodi:nodetypes="ccccc" />
      <g
         id="g4"
         transform="matrix(2.2137577,0,0,2.2137577,2430.2051,2562.2204)"
         style="fill:#00c6ff;stroke:none">
        <path
           id="path6"
           d="m -1024.4,-804.1 -9.3,0 0,-25.3 c 0,-13.9 11.3,-25.3 25.3,-25.3 l 80.3,0 0,9.3 -80.3,0 c -8.8,0 -16,7.2 -16,16 l 0,25.3 z"
           inkscape:connector-curvature="0"
           style="fill:#00c6ff;stroke:none" />
      </g>
      <g
         id="g8"
         transform="matrix(2.2137577,0,0,2.2137577,2430.2051,2562.2204)"
         style="fill:#00c6ff;stroke:none">
        <polygon
           id="polygon10"
           points="-956.2,-830.1 -936.3,-850.1 -956.2,-870 -949.6,-876.6 -923.1,-850.1 -949.6,-823.6 "
           style="fill:#00c6ff;stroke:none" />
      </g>
    </g>
    <g
       id="g4209"
       style="fill:#009bff"
       transform="matrix(2.79196,0,0,2.79196,-201.83919,-1654.6749)">
      <g
         style="fill:#009bff"
         id="g12"
         transform="matrix(2.2137577,0,0,2.2137577,2430.2051,2562.2204)">
        <path
           style="fill:#009bff"
           id="path14"
           d="m -956.9,-750.1 -80.3,0 0,-9.3 80.3,0 c 8.8,0 16,-7.2 16,-16 l 0,-25.3 9.3,0 0,25.3 c 0,14 -11.3,25.3 -25.3,25.3 z"
           inkscape:connector-curvature="0" />
      </g>
      <g
         style="fill:#009bff"
         id="g16"
         transform="matrix(2.2137577,0,0,2.2137577,2430.2051,2562.2204)">
        <polygon
           style="fill:#009bff"
           id="polygon18"
           points="-1042.2,-754.7 -1015.7,-781.2 -1009.2,-774.7 -1029.1,-754.7 -1009.2,-734.8 -1015.7,-728.3 " />
      </g>
    </g>
  </g>
</svg>
